# xmcd
#
# Track frame offsets:
#	150
#	14059
#	28728
#	44849
#	60001
#	71858
#	82540
#	97411
#	110014
#	123977
#	136878
#	148406
#	165103
#	178415
#	190837
#	207051
#	218162
#	234106
#	247313
#	260629
#
# Disc length: 3669 seconds
#
# Revision: 0
# Processed by: cddbd v1.5.2PL0 Copyright (c) Steve Scherf et al.
# Submitted via: EasyCDDAExtractor 16.0.8.1
#
DISCID=2c0e5314
DTITLE=PEDRO PAULO and ALEX - AS 20 +
DYEAR=1900
DGENRE=
TTITLE0=MEU CORPO DA SINAL
TTITLE1=AS NOVINHA TÃO SENSACIONAL
TTITLE2=TA CALOR, TA CALOR
TTITLE3=AÇUCAR EM MIN
TTITLE4=LOKA LOKA
TTITLE5=QUE NAMORA EU
TTITLE6=VIXI NÃO ME CONHECE
TTITLE7=JEITÃO PPA
TTITLE8=TA QUE TA
TTITLE9=TOME LOVE
TTITLE10=REPUBLICA PINGAIADA
TTITLE11=FAZER O PROIBIDO
TTITLE12=APERTE O PLAY
TTITLE13=DE 4 PAREDES
TTITLE14=FAMA DE PEGADOR
TTITLE15=ELA BEBI, TRUPICA E NÃO CAI
TTITLE16=GUENTA PRESSÃO
TTITLE17=HOJE EU TO PRO CRIME
TTITLE18=TA ME PROVOCANDO
TTITLE19=EU VOLTEI
EXTD=
EXTT0=
EXTT1=
EXTT2=
EXTT3=
EXTT4=
EXTT5=
EXTT6=
EXTT7=
EXTT8=
EXTT9=
EXTT10=
EXTT11=
EXTT12=
EXTT13=
EXTT14=
EXTT15=
EXTT16=
EXTT17=
EXTT18=
EXTT19=
PLAYORDER=
